<?xml version="1.0" encoding="UTF-8"?>
<svg xmlns="http://www.w3.org/2000/svg" xmlns:xlink="http://www.w3.org/1999/xlink" width="15pt" height="15pt" viewBox="0 0 15 15" version="1.1">
<g id="surface39349">
<path style=" stroke:none;fill-rule:nonzero;fill:rgb(9.019608%,9.019608%,9.411765%);fill-opacity:1;" d="M 9 9.5 L 9 8.5 C 9.226562 8.386719 9.867188 7.621094 9.9375 7.023438 C 10.113281 7.011719 10.390625 6.847656 10.472656 6.207031 C 10.515625 5.863281 10.34375 5.667969 10.234375 5.609375 C 10.234375 5.609375 10.5 5.105469 10.5 4.5 C 10.5 3.285156 10.023438 2.25 9 2.25 C 9 2.25 8.644531 1.5 7.5 1.5 C 5.378906 1.5 4.5 2.859375 4.5 4.5 C 4.5 5.050781 4.765625 5.609375 4.765625 5.609375 C 4.65625 5.667969 4.484375 5.863281 4.527344 6.207031 C 4.609375 6.847656 4.886719 7.011719 5.0625 7.023438 C 5.132812 7.621094 5.773438 8.386719 6 8.5 L 6 9.5 C 5.5 11 1.5 10 1.5 13.5 L 13.5 13.5 C 13.5 10 9.5 11 9 9.5 Z M 9 9.5 "/>
</g>
</svg>
